{
	"asset":{
		"generator":"Khronos glTF Blender I/O v5.0.21",
		"version":"2.0"
	},
	"scene":0,
	"scenes":[
		{
			"name":"Scene",
			"nodes":[
				13
			]
		}
	],
	"nodes":[
		{
			"name":"head",
			"rotation":[
				-0.16018228232860565,
				8.360956747933369e-22,
				3.5020802097997053e-22,
				0.9870874285697937
			],
			"scale":[
				1,
				0.9999999403953552,
				0.9999999403953552
			],
			"translation":[
				4.0836014585312405e-22,
				0.632455587387085,
				0
			]
		},
		{
			"name":"left_hand",
			"rotation":[
				-0.34395697712898254,
				5.421691895435288e-08,
				-3.9077466595927035e-08,
				0.9389854073524475
			],
			"scale":[
				1,
				1.0000001192092896,
				1
			],
			"translation":[
				6.460716406309075e-09,
				0.5385162234306335,
				2.2131139587600046e-08
			]
		},
		{
			"children":[
				1
			],
			"name":"left_arm",
			"rotation":[
				-0.9995684623718262,
				5.421699356134013e-08,
				3.908017731646396e-08,
				0.029373642057180405
			],
			"scale":[
				1,
				1,
				1.0000030994415283
			],
			"translation":[
				0.5000000596046448,
				0.5375874042510986,
				0.031622692942619324
			]
		},
		{
			"name":"right_hand",
			"rotation":[
				-0.34395697712898254,
				-2.710845947717644e-08,
				1.9538733297963518e-08,
				0.9389854073524475
			],
			"scale":[
				1,
				1.0000001192092896,
				1
			],
			"translation":[
				2.6571964184540775e-08,
				0.5385162234306335,
				-1.8736756146608968e-08
			]
		},
		{
			"children":[
				3
			],
			"name":"right_arm",
			"rotation":[
				-0.9995684623718262,
				-2.7108498557026905e-08,
				-1.954008865823198e-08,
				0.029373642057180405
			],
			"scale":[
				1,
				1,
				1.0000030994415283
			],
			"translation":[
				-0.5,
				0.5375874042510986,
				0.031622692942619324
			]
		},
		{
			"children":[
				0,
				2,
				4
			],
			"name":"chest",
			"rotation":[
				0.3162277936935425,
				-4.493867233087805e-15,
				8.987732772109715e-15,
				0.9486832618713379
			],
			"scale":[
				1,
				0.9999999403953552,
				0.9999998807907104
			],
			"translation":[
				-8.470329472543003e-22,
				0.6324555277824402,
				1.4901161193847656e-08
			]
		},
		{
			"children":[
				5
			],
			"name":"body",
			"rotation":[
				-0.8112422227859497,
				4.4144393029910134e-08,
				6.124708562538217e-08,
				0.5847102999687195
			],
			"translation":[
				-1.8119497724455869e-07,
				0,
				-1.2000000476837158
			]
		},
		{
			"name":"right_foot",
			"rotation":[
				0.16439896821975708,
				1.1742645966705823e-07,
				1.863261012147177e-08,
				0.986393928527832
			],
			"translation":[
				-1.6027318139322233e-08,
				0.6082763671875,
				7.450577932388569e-09
			]
		},
		{
			"children":[
				7
			],
			"name":"right_leg",
			"rotation":[
				0.6463748812675476,
				5.697386740166621e-08,
				-4.805325559686935e-08,
				0.7630199790000916
			],
			"translation":[
				-0.20000018179416656,
				0,
				-1.2000000476837158
			]
		},
		{
			"name":"left_foot",
			"rotation":[
				0.16439899802207947,
				1.1742645256163087e-07,
				1.863261189782861e-08,
				0.986393928527832
			],
			"scale":[
				1,
				1,
				0.9999999403953552
			],
			"translation":[
				1.3775005136551499e-08,
				0.6082761883735657,
				-7.4505797087454084e-09
			]
		},
		{
			"children":[
				9
			],
			"name":"left_leg",
			"rotation":[
				0.6463749408721924,
				5.697387450709357e-08,
				-4.8053262702296706e-08,
				0.7630199790000916
			],
			"translation":[
				0.1999998241662979,
				0,
				-1.2000000476837158
			]
		},
		{
			"children":[
				6,
				8,
				10
			],
			"name":"root",
			"rotation":[
				0.7071067690849304,
				-5.338507591545749e-08,
				-5.338507591545749e-08,
				0.7071067690849304
			]
		},
		{
			"children":[
				11
			],
			"name":"Armature"
		},
		{
			"children":[
				12
			],
			"mesh":0,
			"name":"Character",
			"skin":0
		}
	],
	"meshes":[
		{
			"name":"Character",
			"primitives":[
				{
					"attributes":{
						"POSITION":0,
						"COLOR_0":1,
						"JOINTS_0":2,
						"WEIGHTS_0":3
					},
					"indices":4
				}
			]
		}
	],
	"skins":[
		{
			"inverseBindMatrices":5,
			"joints":[
				11,
				6,
				5,
				0,
				2,
				1,
				4,
				3,
				8,
				7,
				10,
				9
			],
			"name":"Armature"
		}
	],
	"accessors":[
		{
			"bufferView":0,
			"componentType":5126,
			"count":88,
			"max":[
				0.7000000476837158,
				3.200000047683716,
				0.4000000059604645
			],
			"min":[
				-0.699999988079071,
				-2.384185791015625e-07,
				-0.4000000059604645
			],
			"type":"VEC3"
		},
		{
			"bufferView":1,
			"componentType":5123,
			"count":88,
			"normalized":true,
			"type":"VEC4"
		},
		{
			"bufferView":2,
			"componentType":5121,
			"count":88,
			"type":"VEC4"
		},
		{
			"bufferView":3,
			"componentType":5126,
			"count":88,
			"type":"VEC4"
		},
		{
			"bufferView":4,
			"componentType":5123,
			"count":396,
			"type":"SCALAR"
		},
		{
			"bufferView":5,
			"componentType":5126,
			"count":12,
			"type":"MAT4"
		}
	],
	"bufferViews":[
		{
			"buffer":0,
			"byteLength":1056,
			"byteOffset":0,
			"target":34962
		},
		{
			"buffer":0,
			"byteLength":704,
			"byteOffset":1056,
			"target":34962
		},
		{
			"buffer":0,
			"byteLength":352,
			"byteOffset":1760,
			"target":34962
		},
		{
			"buffer":0,
			"byteLength":1408,
			"byteOffset":2112,
			"target":34962
		},
		{
			"buffer":0,
			"byteLength":792,
			"byteOffset":3520,
			"target":34963
		},
		{
			"buffer":0,
			"byteLength":768,
			"byteOffset":4312
		}
	],
	"buffers":[
		{
			"byteLength":5080,
			"uri":"character.bin"
		}
	]
}
